# Blender 3.3.1
# www.blender.org
mtllib light-pole.mtl
o Cube
v 0.240000 0.274147 0.100000
v 0.250000 0.274147 0.090000
v 0.240000 0.284147 0.090000
v 0.240000 0.284147 0.010000
v 0.250000 0.274147 0.010000
v 0.240000 0.274147 0.000000
v -0.240000 0.284147 0.090000
v -0.250000 0.274147 0.090000
v -0.240000 0.274147 0.100000
v -0.240000 0.274147 0.000000
v -0.250000 0.274147 0.010000
v -0.240000 0.284147 0.010000
v 0.240000 -0.388377 0.090000
v 0.250000 -0.378377 0.090000
v 0.240000 -0.378377 0.100000
v 0.240000 -0.378377 0.000000
v 0.250000 -0.378377 0.010000
v 0.240000 -0.388377 0.010000
v -0.240000 -0.378377 0.100000
v -0.250000 -0.378377 0.090000
v -0.240000 -0.388377 0.090000
v -0.240000 -0.378377 0.000000
v -0.240000 -0.388377 0.010000
v -0.250000 -0.378377 0.010000
v -0.083333 0.274147 0.100000
v -0.083333 0.284147 0.090000
v 0.083333 0.284147 0.090000
v 0.083333 0.274147 0.100000
v 0.083333 0.274147 0.000000
v 0.083333 0.284147 0.010000
v -0.083333 0.284147 0.010000
v -0.083333 0.274147 0.000000
v 0.083333 -0.378377 0.100000
v 0.083333 -0.388377 0.090000
v -0.083333 -0.388377 0.090000
v -0.083333 -0.378377 0.100000
v -0.083333 -0.378377 0.000000
v -0.083333 -0.388377 0.010000
v 0.083333 -0.388377 0.010000
v 0.083333 -0.378377 0.000000
v -0.040000 0.293634 0.083162
v -0.050000 0.294147 0.072792
v -0.061765 0.284147 0.087059
v 0.040000 0.293634 0.083162
v 0.061765 0.284147 0.087059
v 0.050000 0.294147 0.072792
v 0.040000 0.293634 0.023162
v 0.050000 0.294147 0.033600
v 0.061765 0.284147 0.012941
v -0.040000 0.293634 0.023162
v -0.061765 0.284147 0.012941
v -0.050000 0.294147 0.033600
v -0.040000 0.584147 0.190000
v -0.050000 0.594147 0.172792
v -0.040000 0.574660 0.176838
v 0.040000 0.584147 0.190000
v 0.040000 0.574660 0.176838
v 0.050000 0.594147 0.172792
v 0.040000 0.584147 0.120000
v 0.050000 0.584147 0.130256
v -0.050000 0.584147 0.130256
v -0.040000 0.584147 0.120000
v -0.050000 0.674147 0.180000
v -0.040000 0.684147 0.180000
v 0.040000 0.684147 0.180000
v 0.050000 0.674147 0.180000
v 0.040000 0.674147 0.120000
v 0.040000 0.684147 0.130000
v 0.050000 0.674147 0.130246
v -0.040000 0.674147 0.120000
v -0.050000 0.674147 0.130246
v -0.040000 0.684147 0.130000
v -0.040000 0.584147 16.170000
v -0.040000 0.594147 16.180000
v -0.050000 0.594147 16.170000
v 0.040000 0.584147 16.170000
v 0.050000 0.594147 16.170000
v 0.040000 0.594147 16.180000
v -0.040000 0.684147 16.170000
v -0.050000 0.674147 16.170000
v -0.040000 0.674147 16.180000
v 0.040000 0.684147 16.170000
v 0.040000 0.674147 16.180000
v 0.050000 0.674147 16.170000
vn -0.0000 -0.0000 -1.0000
vn -0.0000 -0.0000 1.0000
vn -0.0000 -1.0000 -0.0000
vn -1.0000 -0.0000 -0.0000
vn -0.0000 1.0000 -0.0000
vn -0.0000 -0.3162 0.9487
vn 1.0000 -0.0000 -0.0000
vn -0.0000 0.3162 -0.9487
vn 0.5774 0.5774 0.5774
vn 0.5774 0.5774 -0.5774
vn -0.5774 0.5774 0.5774
vn -0.5774 0.5774 -0.5774
vn 0.5774 -0.5774 0.5774
vn 0.5774 -0.5774 -0.5774
vn -0.5774 -0.5774 0.5774
vn -0.5773 -0.5774 -0.5774
vn -0.3202 0.8794 0.3523
vn 0.3202 0.8794 0.3523
vn 0.2616 0.9188 -0.2958
vn -0.2616 0.9188 -0.2958
vn -0.8761 -0.3911 0.2819
vn 0.8761 -0.3911 0.2819
vn 0.5867 0.5726 -0.5726
vn -0.5867 0.5726 -0.5726
vn -0.5774 -0.5773 0.5774
vn 0.5774 -0.5773 0.5774
vn -0.5774 0.5773 0.5774
vn 0.5774 0.5773 0.5774
vn -0.0000 0.7071 0.7071
vn 0.7071 0.7071 -0.0000
vn -0.0000 0.7071 -0.7071
vn -0.7071 0.7071 -0.0000
vn -0.7071 -0.0000 0.7071
vn -0.7071 -0.0000 -0.7071
vn -0.7071 -0.7071 -0.0000
vn -0.0000 -0.7071 0.7071
vn -0.0000 -0.7071 -0.7071
vn 0.7071 -0.7071 -0.0000
vn 0.7071 -0.0000 0.7071
vn 0.7071 -0.0000 -0.7071
vn -0.0000 0.3799 0.9250
vn -0.0000 0.7329 -0.6803
vn 0.6476 0.7619 -0.0000
vn -0.6476 0.7619 -0.0000
vn -0.0000 -0.8112 0.5847
vn 0.6976 0.2266 -0.6798
vn 0.7071 -0.2236 0.6708
vn -0.7071 -0.2236 0.6708
vn -0.6976 0.2266 -0.6798
vn 0.7158 -0.0000 -0.6983
vn -0.7158 -0.0000 -0.6983
vt 0.128717 0.745000
vt 0.400000 0.996283
vt 0.128717 0.750000
vt 0.125000 0.745000
vt 0.400000 1.000000
vt 0.400000 0.005000
vt 0.600000 1.000000
vt 0.875000 0.745000
vt 0.600000 0.005000
vt 0.600000 0.996283
vt 0.871283 0.750000
vt 0.625000 0.996283
vt 0.871283 0.745000
vt 0.400000 0.250000
vt 0.400000 0.245000
vt 0.125000 0.505000
vt 0.400000 0.253717
vt 0.375000 0.253717
vt 0.128717 0.505000
vt 0.871283 0.505000
vt 0.625000 0.253717
vt 0.600000 0.253717
vt 0.600000 0.250000
vt 0.875000 0.505000
vt 0.600000 0.245000
vt 0.400000 0.745000
vt 0.400000 0.750000
vt 0.400000 0.753717
vt 0.371283 0.750000
vt 0.375000 0.745000
vt 0.371283 0.745000
vt 0.628717 0.745000
vt 0.600000 0.753717
vt 0.628717 0.750000
vt 0.625000 0.745000
vt 0.600000 0.745000
vt 0.375000 0.496283
vt 0.371283 0.505000
vt 0.400000 0.496283
vt 0.400000 0.500000
vt 0.400000 0.505000
vt 0.625000 0.505000
vt 0.625000 0.496283
vt 0.628717 0.505000
vt 0.600000 0.505000
vt 0.600000 0.500000
vt 0.600000 0.496283
vt 0.128717 0.583333
vt 0.400000 0.166667
vt 0.125000 0.583333
vt 0.125000 0.574357
vt 0.125000 0.666667
vt 0.125000 0.675643
vt 0.400000 0.083333
vt 0.128717 0.666667
vt 0.871283 0.666667
vt 0.875000 0.666667
vt 0.875000 0.675643
vt 0.600000 0.083333
vt 0.600000 0.166667
vt 0.875000 0.583333
vt 0.875000 0.574357
vt 0.871283 0.583333
vt 0.371283 0.666667
vt 0.400000 0.666667
vt 0.400000 0.583333
vt 0.371283 0.583333
vt 0.628717 0.583333
vt 0.600000 0.583333
vt 0.600000 0.666667
vt 0.628717 0.666667
vt 0.125000 0.591667
vt 0.375000 0.166667
vt 0.418921 0.166667
vt 0.125000 0.583333
vt 0.375000 0.166667
vt 0.125000 0.656218
vt 0.125000 0.658333
vt 0.125000 0.666667
vt 0.375000 0.083333
vt 0.418920 0.083333
vt 0.125000 0.666667
vt 0.875000 0.658333
vt 0.582220 0.083333
vt 0.875000 0.666667
vt 0.875000 0.666667
vt 0.625000 0.083333
vt 0.875000 0.591667
vt 0.625000 0.166667
vt 0.875000 0.583333
vt 0.625000 0.166667
vt 0.875000 0.583333
vt 0.582220 0.166667
vt 0.125000 0.591667
vt 0.375000 0.166667
vt 0.405032 0.166667
vt 0.418920 0.166667
vt 0.125000 0.583333
vt 0.125000 0.591667
vt 0.375000 0.166667
vt 0.125000 0.658333
vt 0.125000 0.658333
vt 0.375000 0.083333
vt 0.418920 0.083333
vt 0.405032 0.083333
vt 0.125000 0.666667
vt 0.875000 0.658333
vt 0.582266 0.083333
vt 0.875000 0.666667
vt 0.582266 0.166667
vt 0.875000 0.591667
vt 0.625000 0.166667
vt 0.375000 0.166667
vt 0.375000 0.158333
vt 0.375000 0.091667
vt 0.375000 0.083333
vt 0.875000 0.658333
vt 0.875000 0.658333
vt 0.583333 0.091667
vt 0.582307 0.083333
vt 0.875000 0.666667
vt 0.875000 0.591667
vt 0.625000 0.166667
vt 0.582307 0.166667
vt 0.583333 0.166667
vt 0.875000 0.591667
vt 0.583333 0.158333
vt 0.125000 0.591667
vt 0.125000 0.591667
vt 0.375000 0.166667
vt 0.125000 0.583333
vt 0.125000 0.658333
vt 0.375000 0.083333
vt 0.125000 0.666667
vt 0.125000 0.658333
vt 0.375000 0.166667
vt 0.125000 0.591667
vt 0.375000 0.158333
vt 0.125000 0.583333
vt 0.375000 0.166667
vt 0.375000 0.166667
vt 0.125000 0.591667
vt 0.125000 0.658333
vt 0.375000 0.091667
vt 0.125000 0.658333
vt 0.125000 0.666667
vt 0.375000 0.083333
s 0
usemtl Material.001
f 22/44/1 10/20/1 32/63/1 37/68/1
f 9/19/2 19/38/2 36/67/2 25/48/2
f 21/41/3 23/45/3 38/69/3 35/66/3
f 28/55/2 33/64/2 15/31/2 1/1/2
f 40/71/1 29/56/1 6/13/1 16/32/1
f 8/17/4 11/22/4 24/47/4 20/39/4
f 34/65/3 39/70/3 18/36/3 13/26/3
f 35/66/3 38/69/3 39/70/3 34/65/3
f 26/49/5 31/60/5 12/25/5 7/15/5
f 31/60/5 26/49/5 43/76/5 51/91/5
f 26/51/5 27/53/5 45/79/5 43/75/5
f 41/72/6 44/78/6 57/102/6 55/99/6
f 14/28/7 17/33/7 5/10/7 2/2/7
f 27/54/5 30/59/5 49/87/5 45/80/5
f 47/83/8 50/88/8 62/111/8 59/107/8
f 37/68/1 32/63/1 29/56/1 40/71/1
f 30/58/5 31/62/5 51/90/5 49/86/5
f 25/48/2 36/67/2 33/64/2 28/55/2
f 58/103/7 66/116/7 84/147/7 77/133/7
f 52/93/4 42/74/4 54/97/4 61/110/4
f 46/81/7 48/84/7 60/108/7 58/104/7
f 53/94/3 56/101/3 76/132/3 73/128/3
f 74/129/2 78/135/2 83/145/2 81/142/2
f 59/107/1 62/111/1 70/122/1 67/117/1
f 63/113/4 54/95/4 75/130/4 80/140/4
f 65/115/5 64/114/5 79/138/5 82/144/5
f 61/110/4 54/96/4 63/113/4 71/124/4
f 58/105/7 60/108/7 69/120/7 66/116/7
f 65/115/5 68/119/5 72/127/5 64/114/5
f 1/1/9 2/3/9 3/4/9
f 4/7/10 5/10/10 6/12/10
f 7/14/11 8/17/11 9/18/11
f 10/21/12 11/22/12 12/23/12
f 13/26/13 14/27/13 15/30/13
f 16/32/14 17/34/14 18/35/14
f 19/37/15 20/39/15 21/40/15
f 22/42/16 23/45/16 24/46/16
f 41/73/17 42/74/17 43/76/17
f 44/77/18 45/79/18 46/82/18
f 47/83/19 48/85/19 49/86/19
f 50/88/20 51/90/20 52/92/20
f 53/94/21 54/98/21 55/99/21
f 56/101/22 57/102/22 58/106/22
f 67/117/23 68/118/23 69/121/23
f 70/123/24 71/124/24 72/125/24
f 73/128/25 74/129/25 75/131/25
f 76/132/26 77/134/26 78/135/26
f 79/136/27 80/140/27 81/141/27
f 82/143/28 83/145/28 84/146/28
f 28/55/29 1/1/29 3/4/29 27/52/29
f 2/2/30 5/10/30 4/7/30 3/5/30
f 32/63/31 10/20/31 12/24/31 31/61/31
f 11/22/32 8/17/32 7/15/32 12/25/32
f 19/37/33 9/18/33 8/17/33 20/39/33
f 10/21/34 22/43/34 24/47/34 11/22/34
f 23/45/35 21/41/35 20/39/35 24/47/35
f 36/67/36 19/38/36 21/41/36 35/66/36
f 40/71/37 16/32/37 18/36/37 39/70/37
f 17/33/38 14/28/38 13/26/38 18/36/38
f 1/1/39 15/31/39 14/29/39 2/3/39
f 16/32/40 6/13/40 5/11/40 17/34/40
f 9/19/29 25/48/29 26/50/29 7/16/29
f 25/48/29 28/55/29 27/53/29 26/51/29
f 6/13/31 29/56/31 30/57/31 4/8/31
f 29/56/31 32/63/31 31/62/31 30/58/31
f 15/31/36 33/64/36 34/65/36 13/26/36
f 33/64/36 36/67/36 35/66/36 34/65/36
f 22/44/37 37/68/37 38/69/37 23/45/37
f 37/68/37 40/71/37 39/70/37 38/69/37
f 43/75/41 45/79/41 44/78/41 41/72/41
f 49/86/42 51/90/42 50/88/42 47/83/42
f 48/84/43 46/81/43 45/80/43 49/87/43
f 51/91/44 43/76/44 42/74/44 52/93/44
f 55/99/45 57/102/45 56/101/45 53/94/45
f 47/83/46 59/107/46 60/109/46 48/85/46
f 57/102/47 44/78/47 46/82/47 58/106/47
f 54/97/48 42/74/48 41/73/48 55/100/48
f 62/112/49 50/89/49 52/93/49 61/110/49
f 67/117/31 70/122/31 72/126/31 68/118/31
f 68/119/30 65/115/30 66/116/30 69/120/30
f 71/124/32 63/113/32 64/114/32 72/127/32
f 59/107/50 67/117/50 69/121/50 60/109/50
f 70/123/51 62/112/51 61/110/51 71/124/51
f 73/128/36 76/132/36 78/135/36 74/129/36
f 81/142/29 83/145/29 82/143/29 79/137/29
f 83/145/39 78/135/39 77/134/39 84/146/39
f 80/139/33 75/131/33 74/129/33 81/142/33
f 65/115/30 82/144/30 84/147/30 66/116/30
f 76/132/38 56/101/38 58/106/38 77/134/38
f 75/131/35 54/98/35 53/94/35 73/128/35
f 79/138/32 64/114/32 63/113/32 80/140/32
f 3/6/5 4/9/5 30/59/5 27/54/5
