# Blender 3.3.1
# www.blender.org
mtllib rocky-platform.mtl
o Cube
v 1.993770 -0.050000 0.503104
v 1.993770 0.000000 0.503104
v -2.006230 -0.050000 0.503104
v -2.006230 0.000000 0.503104
v 1.993770 -0.050000 -0.496896
v 1.993770 0.000000 -0.496896
v -2.006230 -0.050000 -0.496896
v -2.006230 0.000000 -0.496896
vn -0.0000 -0.0000 1.0000
vn -1.0000 -0.0000 -0.0000
vn -0.0000 -0.0000 -1.0000
vn 1.0000 -0.0000 -0.0000
vn -0.0000 1.0000 -0.0000
vt 0.375000 0.000000
vt 0.375000 1.000000
vt 0.625000 0.000000
vt 0.625000 1.000000
vt 0.875000 0.750000
vt 0.375000 0.250000
vt 0.625000 0.250000
vt 0.875000 0.500000
vt 0.375000 0.750000
vt 0.625000 0.750000
vt 0.375000 0.500000
vt 0.625000 0.500000
s 0
usemtl Material.001
f 1/1/1 2/3/1 4/7/1 3/6/1
f 3/6/2 4/7/2 8/12/2 7/11/2
f 7/11/3 8/12/3 6/10/3 5/9/3
f 5/9/4 6/10/4 2/4/4 1/2/4
f 8/12/5 4/8/5 2/5/5 6/10/5
o Cube.001
v 1.993770 -0.250000 0.503104
v 1.993770 -0.050000 0.503104
v -2.006230 -0.250000 0.503104
v -2.006230 -0.050000 0.503104
v 1.993770 -0.250000 -0.496896
v 1.993770 -0.050000 -0.496896
v -2.006230 -0.250000 -0.496896
v -2.006230 -0.050000 -0.496896
v -1.339188 -0.376505 0.282740
v -0.382115 -0.376505 0.282740
v -1.398347 -0.376505 -0.017260
v -0.625043 -0.376505 -0.017260
v -1.137681 -0.895213 0.207740
v -0.659144 -0.895213 0.207740
v -1.167260 -0.895213 0.057740
v -0.780608 -0.895213 0.057740
v -0.936173 -1.313169 0.132740
v -0.936173 -1.313169 0.132740
v -0.936173 -1.313169 0.132740
v -0.936173 -1.313169 0.132740
v 0.744359 -0.250000 -0.496896
v 1.055265 -0.186540 -0.096767
v 0.962881 -0.659325 -0.114888
v 1.229399 -0.755247 -0.391942
v 0.774714 -0.628269 -0.527899
v 0.781984 -0.314522 0.390711
v 0.375274 -0.328183 -0.200468
v -0.226084 -0.368197 0.297212
v 0.129681 -0.340047 -0.155488
v 0.392833 -0.791957 -0.036248
v 0.515630 -0.786025 -0.058738
v 0.718984 -0.779194 0.236851
v 0.214951 -0.806032 0.190102
v 0.253983 -0.250000 -0.496896
v -0.359651 -0.250000 -0.496896
v -0.820795 -0.250000 -0.496896
v -0.310321 -0.250000 0.503104
v 0.632854 -0.250000 0.503104
v -1.043012 -0.285874 -0.360881
v -1.556118 -0.285874 -0.360881
v -0.958282 -0.340631 -0.153275
v -1.293001 -0.340631 -0.153275
v -1.111293 -0.380043 -0.341018
v -1.417812 -0.380043 -0.341018
v -1.060678 -0.412754 -0.216998
v -1.260631 -0.412754 -0.216998
v -0.568528 -0.356660 -0.092499
v -0.020765 -0.330200 -0.192822
v -0.375912 -0.264846 -0.440609
v -0.710601 -0.264846 -0.440609
v -0.458270 -0.408781 -0.198458
v -0.206501 -0.501734 -0.208968
v -0.347905 -0.448720 -0.356313
v -0.497461 -0.393346 -0.380098
v 1.369064 -0.250000 -0.496896
v 0.992429 -0.628269 -0.527899
v 1.570995 -0.161627 -0.191223
v 1.056712 -0.250000 -0.496896
v 1.142618 -0.650643 -0.147806
v 0.883571 -0.628269 -0.527899
vn -0.0000 -0.0000 1.0000
vn -1.0000 -0.0000 -0.0000
vn -0.0000 -0.0000 -1.0000
vn 1.0000 -0.0000 -0.0000
vn 0.0268 -0.9908 -0.1330
vn -0.0000 -0.1431 0.9897
vn -0.1964 -0.9805 0.0089
vn -0.0000 -0.8673 0.4979
vn -0.0000 -0.9669 -0.2550
vn 0.7210 -0.3731 -0.5839
vn 0.7393 -0.3083 -0.5987
vn -0.9081 -0.3787 0.1791
vn -0.0000 -0.1431 -0.9897
vn -0.0000 1.0000 -0.0000
vn -0.8748 -0.4527 0.1725
vn -0.0000 -0.1766 -0.9843
vn -0.0000 -0.1766 0.9843
vn -0.3755 -0.9220 0.0941
vn -0.8524 0.0320 0.5219
vn 0.1179 -0.2331 -0.9653
vn 0.1831 -0.0734 0.9804
vn 0.0528 -0.9985 -0.0164
vn 0.8206 0.0763 -0.5663
vn 0.0449 -0.9985 -0.0306
vn -0.6533 -0.5245 -0.5460
vn -0.0719 -0.3047 0.9497
vn -0.1541 -0.3350 -0.9295
vn 0.1283 -0.9866 -0.1005
vn -0.5355 -0.6813 0.4990
vn -0.0000 -0.2064 -0.9785
vn 0.6835 -0.5871 -0.4338
vn -0.0000 -0.6621 0.7494
vn -0.0039 -0.4230 -0.9061
vn -0.3465 -0.9380 -0.0049
vn 0.0783 -0.4979 0.8637
vn -0.4886 -0.8725 -0.0094
vn 0.5198 -0.3776 -0.7663
vn -0.0000 0.0817 -0.9967
vn 0.5229 -0.5273 0.6697
vn 0.0210 -0.9967 -0.0790
vt 0.375000 1.000000
vt 0.375000 0.000000
vt 0.625000 0.000000
vt 0.625000 1.000000
vt 0.375000 0.250000
vt 0.625000 0.250000
vt 0.375000 0.750000
vt 0.625000 0.750000
vt 0.375000 0.500000
vt 0.625000 0.500000
vt 0.375000 0.250000
vt 0.375000 1.000000
vt 0.375000 0.000000
vt 0.375000 0.500000
vt 0.375000 0.750000
vt 0.375000 0.250000
vt 0.375000 1.000000
vt 0.375000 0.000000
vt 0.375000 0.500000
vt 0.375000 0.750000
vt 0.125000 0.500000
vt 0.375000 0.250000
vt 0.375000 1.000000
vt 0.125000 0.750000
vt 0.375000 0.000000
vt 0.375000 0.500000
vt 0.375000 0.750000
vt 0.375000 0.671912
vt 0.375000 0.750000
vt 0.375000 0.750000
vt 0.375000 0.750000
vt 0.375000 0.671912
vt 0.375000 1.000000
vt 0.375000 0.000000
vt 0.375000 0.750000
vt 0.375000 1.000000
vt 0.375000 0.000000
vt 0.375000 0.750000
vt 0.375000 0.750000
vt 0.375000 0.750000
vt 0.375000 1.000000
vt 0.375000 0.000000
vt 0.375000 1.000000
vt 0.375000 0.000000
vt 0.375000 0.641263
vt 0.375000 0.602911
vt 0.375000 0.574090
vt 0.375000 0.144006
vt 0.375000 0.085057
vt 0.375000 0.574090
vt 0.375000 0.500000
vt 0.375000 0.750000
vt 0.375000 0.500000
vt 0.375000 0.574090
vt 0.375000 0.500000
vt 0.375000 0.750000
vt 0.375000 0.500000
vt 0.375000 0.750000
vt 0.375000 0.750000
vt 0.375000 0.602911
vt 0.375000 0.574090
vt 0.375000 0.750000
vt 0.375000 0.750000
vt 0.375000 0.602911
vt 0.375000 0.574090
vt 0.375000 0.710956
vt 0.375000 0.710956
vt 0.375000 0.750000
vt 0.375000 0.691434
vt 0.375000 0.750000
vt 0.375000 0.691434
s 0
usemtl Material.002
f 9/14/6 10/15/6 12/18/6 11/17/6 45/60/6 46/61/6
f 11/17/7 12/18/7 16/22/7 15/21/7
f 15/21/8 16/22/8 14/20/8 13/19/8 63/78/8 66/81/8 29/40/8 42/57/8 43/58/8 44/59/8
f 13/19/9 14/20/9 10/16/9 9/13/9
f 13/19/10 9/13/10 34/45/10 35/47/10 30/41/10 65/80/10
f 18/25/11 17/23/11 21/28/11 22/30/11
f 11/17/12 15/21/12 19/26/12 17/23/12
f 9/14/13 46/61/13 34/46/13
f 44/59/14 20/27/14 49/64/14 47/62/14
f 24/32/15 22/29/15 26/35/15 28/39/15
f 20/27/16 18/24/16 22/29/16 24/32/16
f 17/23/17 19/26/17 23/31/17 21/28/17
f 19/26/18 20/27/18 24/32/18 23/31/18
f 25/33/19 27/38/19 28/39/19 26/36/19
f 21/28/20 23/31/20 27/38/20 25/34/20
f 23/31/21 24/32/21 28/39/21 27/38/21
f 22/30/22 21/28/22 25/34/22 26/37/22
f 67/82/23 68/83/23 64/79/23 32/43/23
f 30/41/24 29/40/24 33/44/24 31/42/24
f 63/78/25 13/19/25 32/43/25 64/79/25
f 65/80/26 30/41/26 31/42/26 67/82/26
f 39/52/27 40/53/27 41/55/27 38/51/27
f 35/47/28 34/45/28 40/53/28 39/52/28
f 37/50/29 36/48/29 18/24/29 20/27/29
f 36/48/30 37/50/30 38/51/30 41/55/30
f 34/46/31 36/49/31 41/56/31 40/54/31
f 37/50/32 35/47/32 39/52/32 38/51/32
f 35/47/33 42/57/33 29/40/33 30/41/33
f 37/50/14 43/58/14 42/57/14 35/47/14
f 44/59/14 43/58/14 57/72/14 58/73/14
f 18/25/13 45/60/13 11/17/13 17/23/13
f 34/46/13 46/61/13 45/60/13 36/49/13
f 36/49/13 45/60/13 18/25/13
f 50/65/34 48/63/34 52/67/34 54/69/34
f 15/21/14 44/59/14 47/62/14 48/63/14
f 19/26/14 15/21/14 48/63/14 50/65/14
f 20/27/14 19/26/14 50/65/14 49/64/14
f 52/67/14 51/66/14 53/68/14 54/69/14
f 48/63/35 47/62/35 51/66/35 52/67/35
f 47/62/36 49/64/36 53/68/36 51/66/36
f 49/64/37 50/65/37 54/69/37 53/68/37
f 58/73/38 57/72/38 61/76/38 62/77/38
f 20/27/14 44/59/14 58/73/14 55/70/14
f 43/58/14 37/50/14 56/71/14 57/72/14
f 37/50/14 20/27/14 55/70/14 56/71/14
f 59/74/39 62/77/39 61/76/39 60/75/39
f 56/71/40 55/70/40 59/74/40 60/75/40
f 55/70/41 58/73/41 62/77/41 59/74/41
f 57/72/42 56/71/42 60/75/42 61/76/42
f 66/81/43 63/78/43 64/79/43 68/83/43
f 29/40/43 66/81/43 68/83/43 33/44/43
f 13/19/44 65/80/44 67/82/44 32/43/44
f 31/42/45 33/44/45 68/83/45 67/82/45
