# This file uses centimeters as units for non-parametric coordinates.

mtllib Arrow.mtl
g default
v 0.641568 -0.242884 -0.028086
v 1.641568 -0.242884 -0.028086
v 0.641568 -0.710892 -0.028086
v 1.641568 -0.710892 -0.028086
v 0.641568 -0.710892 0.028086
v 1.641568 -0.710892 0.028086
v 0.641568 -0.242884 0.028086
v 1.641568 -0.242884 0.028086
v 2.948896 -0.242884 0.028086
v 2.948896 -0.242884 -0.028086
v 1.644765 -1.086568 0.028086
v 1.644765 -1.086568 -0.028086
v -0.500000 -0.242884 -0.028086
v 0.500000 -0.242884 -0.028086
v -0.500000 -0.710892 -0.028086
v 0.500000 -0.710892 -0.028086
v -0.500000 -0.710892 0.028086
v 0.500000 -0.710892 0.028086
v -0.500000 -0.242884 0.028086
v 0.500000 -0.242884 0.028086
v 1.807328 -0.242884 0.028086
v 1.807328 -0.242884 -0.028086
v 0.503197 -1.086568 0.028086
v 0.503197 -1.086568 -0.028086
v -0.500000 -0.243004 0.028086
v 0.500000 -0.243004 0.028086
v -0.500000 0.225004 0.028086
v 0.500000 0.225004 0.028086
v -0.500000 0.225004 -0.028086
v 0.500000 0.225004 -0.028086
v -0.500000 -0.243004 -0.028086
v 0.500000 -0.243004 -0.028086
v 1.807328 -0.243004 -0.028086
v 1.807328 -0.243004 0.028086
v 0.503197 0.600680 -0.028086
v 0.503197 0.600680 0.028086
v 0.641568 -0.243004 0.028086
v 1.641568 -0.243004 0.028086
v 0.641568 0.225004 0.028086
v 1.641568 0.225004 0.028086
v 0.641568 0.225004 -0.028086
v 1.641568 0.225004 -0.028086
v 0.641568 -0.243004 -0.028086
v 1.641568 -0.243004 -0.028086
v 2.948896 -0.243004 -0.028086
v 2.948896 -0.243004 0.028086
v 1.644765 0.600680 -0.028086
v 1.644765 0.600680 0.028086
v 0.074980 -0.242884 -0.028086
v 1.074980 -0.242884 -0.028086
v 0.074980 -0.710892 -0.028086
v 1.074980 -0.710892 -0.028086
v 0.074980 -0.710892 0.028086
v 1.074980 -0.710892 0.028086
v 0.074980 -0.242884 0.028086
v 1.074980 -0.242884 0.028086
v 2.382308 -0.242884 0.028086
v 2.382308 -0.242884 -0.028086
v 1.078176 -1.086568 0.028086
v 1.078176 -1.086568 -0.028086
v 0.074980 -0.243004 0.028086
v 1.074980 -0.243004 0.028086
v 0.074980 0.225004 0.028086
v 1.074980 0.225004 0.028086
v 0.074980 0.225004 -0.028086
v 1.074980 0.225004 -0.028086
v 0.074980 -0.243004 -0.028086
v 1.074980 -0.243004 -0.028086
v 2.382308 -0.243004 -0.028086
v 2.382308 -0.243004 0.028086
v 1.078176 0.600680 -0.028086
v 1.078176 0.600680 0.028086
vt 0.375000 0.000000
vt 0.625000 0.000000
vt 0.625000 0.250000
vt 0.375000 0.250000
vt 0.625000 0.500000
vt 0.375000 0.500000
vt 0.625000 0.750000
vt 0.375000 0.750000
vt 0.625000 1.000000
vt 0.375000 1.000000
vt 0.625000 0.000000
vt 0.875000 0.000000
vt 0.875000 0.250000
vt 0.625000 0.250000
vt 0.125000 0.000000
vt 0.125000 0.250000
vt 0.875000 0.000000
vt 0.875000 0.250000
vt 0.375000 0.000000
vt 0.625000 0.000000
vt 0.625000 0.250000
vt 0.375000 0.250000
vt 0.625000 0.500000
vt 0.375000 0.500000
vt 0.625000 0.750000
vt 0.375000 0.750000
vt 0.625000 1.000000
vt 0.375000 1.000000
vt 0.625000 0.000000
vt 0.875000 0.000000
vt 0.875000 0.250000
vt 0.625000 0.250000
vt 0.125000 0.000000
vt 0.125000 0.250000
vt 0.875000 0.000000
vt 0.875000 0.250000
vt 0.375000 0.000000
vt 0.625000 0.000000
vt 0.625000 0.250000
vt 0.375000 0.250000
vt 0.625000 0.500000
vt 0.375000 0.500000
vt 0.625000 0.750000
vt 0.375000 0.750000
vt 0.625000 1.000000
vt 0.375000 1.000000
vt 0.625000 0.000000
vt 0.875000 0.000000
vt 0.875000 0.250000
vt 0.625000 0.250000
vt 0.125000 0.000000
vt 0.125000 0.250000
vt 0.875000 0.000000
vt 0.875000 0.250000
vt 0.375000 0.000000
vt 0.625000 0.000000
vt 0.625000 0.250000
vt 0.375000 0.250000
vt 0.625000 0.500000
vt 0.375000 0.500000
vt 0.625000 0.750000
vt 0.375000 0.750000
vt 0.625000 1.000000
vt 0.375000 1.000000
vt 0.625000 0.000000
vt 0.875000 0.000000
vt 0.875000 0.250000
vt 0.625000 0.250000
vt 0.125000 0.000000
vt 0.125000 0.250000
vt 0.875000 0.000000
vt 0.875000 0.250000
vt 0.375000 0.000000
vt 0.625000 0.000000
vt 0.625000 0.250000
vt 0.375000 0.250000
vt 0.625000 0.500000
vt 0.375000 0.500000
vt 0.625000 0.750000
vt 0.375000 0.750000
vt 0.625000 1.000000
vt 0.375000 1.000000
vt 0.625000 0.000000
vt 0.875000 0.000000
vt 0.875000 0.250000
vt 0.625000 0.250000
vt 0.125000 0.000000
vt 0.125000 0.250000
vt 0.875000 0.000000
vt 0.875000 0.250000
vt 0.375000 0.000000
vt 0.625000 0.000000
vt 0.625000 0.250000
vt 0.375000 0.250000
vt 0.625000 0.500000
vt 0.375000 0.500000
vt 0.625000 0.750000
vt 0.375000 0.750000
vt 0.625000 1.000000
vt 0.375000 1.000000
vt 0.625000 0.000000
vt 0.875000 0.000000
vt 0.875000 0.250000
vt 0.625000 0.250000
vt 0.125000 0.000000
vt 0.125000 0.250000
vt 0.875000 0.000000
vt 0.875000 0.250000
vn 0.000000 0.000000 -1.000000
vn -0.000000 0.000000 -1.000000
vn -0.000000 0.000000 -1.000000
vn 0.000000 0.000000 -1.000000
vn 0.000000 -1.000000 0.000000
vn -0.350696 -0.936489 0.000000
vn -0.350696 -0.936489 0.000000
vn 0.000000 -1.000000 0.000000
vn 0.000000 0.000000 1.000000
vn 0.000000 0.000000 1.000000
vn 0.000000 0.000000 1.000000
vn 0.000000 0.000000 1.000000
vn 0.000000 1.000000 0.000000
vn 0.000000 1.000000 0.000000
vn 0.000000 1.000000 0.000000
vn 0.000000 1.000000 0.000000
vn 0.543176 -0.839619 0.000000
vn 0.543176 -0.839619 0.000000
vn 0.543176 -0.839619 0.000000
vn 0.543176 -0.839619 0.000000
vn -1.000000 0.000000 0.000000
vn -1.000000 0.000000 0.000000
vn -1.000000 0.000000 0.000000
vn -1.000000 0.000000 0.000000
vn 0.000000 1.000000 0.000000
vn 0.000000 1.000000 0.000000
vn 0.000000 1.000000 0.000000
vn 0.000000 1.000000 0.000000
vn 0.000000 0.000000 1.000000
vn 0.000000 0.000000 1.000000
vn 0.000000 0.000000 1.000000
vn 0.000000 0.000000 1.000000
vn -0.350696 -0.936489 0.000000
vn -0.350696 -0.936489 0.000000
vn -0.999964 -0.008509 0.000000
vn -0.999964 -0.008509 0.000000
vn -0.000000 0.000000 -1.000000
vn -0.000000 0.000000 -1.000000
vn -0.000000 0.000000 -1.000000
vn -0.000000 0.000000 -1.000000
vn 0.000000 0.000000 -1.000000
vn -0.000000 0.000000 -1.000000
vn -0.000000 0.000000 -1.000000
vn 0.000000 0.000000 -1.000000
vn 0.000000 -1.000000 0.000000
vn -0.350696 -0.936489 0.000000
vn -0.350696 -0.936489 0.000000
vn 0.000000 -1.000000 0.000000
vn 0.000000 0.000000 1.000000
vn 0.000000 0.000000 1.000000
vn 0.000000 0.000000 1.000000
vn 0.000000 0.000000 1.000000
vn 0.000000 1.000000 0.000000
vn 0.000000 1.000000 0.000000
vn 0.000000 1.000000 0.000000
vn 0.000000 1.000000 0.000000
vn 0.543176 -0.839619 0.000000
vn 0.543176 -0.839619 0.000000
vn 0.543176 -0.839619 0.000000
vn 0.543176 -0.839619 0.000000
vn -1.000000 0.000000 0.000000
vn -1.000000 0.000000 0.000000
vn -1.000000 0.000000 0.000000
vn -1.000000 0.000000 0.000000
vn 0.000000 1.000000 0.000000
vn 0.000000 1.000000 0.000000
vn 0.000000 1.000000 0.000000
vn 0.000000 1.000000 0.000000
vn 0.000000 0.000000 1.000000
vn 0.000000 0.000000 1.000000
vn 0.000000 0.000000 1.000000
vn 0.000000 0.000000 1.000000
vn -0.350696 -0.936489 0.000000
vn -0.350696 -0.936489 0.000000
vn -0.999964 -0.008509 0.000000
vn -0.999964 -0.008509 0.000000
vn -0.000000 0.000000 -1.000000
vn -0.000000 0.000000 -1.000000
vn -0.000000 0.000000 -1.000000
vn -0.000000 0.000000 -1.000000
vn 0.000000 0.000000 1.000000
vn 0.000000 0.000000 1.000000
vn 0.000000 0.000000 1.000000
vn 0.000000 0.000000 1.000000
vn 0.000000 1.000000 0.000000
vn -0.350696 0.936489 0.000000
vn -0.350696 0.936489 0.000000
vn 0.000000 1.000000 0.000000
vn -0.000000 0.000000 -1.000000
vn -0.000000 0.000000 -1.000000
vn -0.000000 0.000000 -1.000000
vn -0.000000 0.000000 -1.000000
vn 0.000000 -1.000000 0.000000
vn 0.000000 -1.000000 0.000000
vn 0.000000 -1.000000 0.000000
vn 0.000000 -1.000000 0.000000
vn 0.543176 0.839619 0.000000
vn 0.543176 0.839619 0.000000
vn 0.543176 0.839619 0.000000
vn 0.543176 0.839619 0.000000
vn -1.000000 0.000000 0.000000
vn -1.000000 0.000000 0.000000
vn -1.000000 0.000000 0.000000
vn -1.000000 0.000000 0.000000
vn 0.000000 -1.000000 0.000000
vn 0.000000 -1.000000 0.000000
vn 0.000000 -1.000000 0.000000
vn 0.000000 -1.000000 0.000000
vn -0.000000 0.000000 -1.000000
vn -0.000000 0.000000 -1.000000
vn -0.000000 0.000000 -1.000000
vn -0.000000 0.000000 -1.000000
vn -0.350696 0.936489 0.000000
vn -0.350696 0.936489 0.000000
vn -0.999964 0.008509 0.000000
vn -0.999964 0.008509 0.000000
vn 0.000000 0.000000 1.000000
vn 0.000000 0.000000 1.000000
vn 0.000000 0.000000 1.000000
vn 0.000000 0.000000 1.000000
vn 0.000000 0.000000 1.000000
vn 0.000000 0.000000 1.000000
vn 0.000000 0.000000 1.000000
vn 0.000000 0.000000 1.000000
vn 0.000000 1.000000 0.000000
vn -0.350696 0.936489 0.000000
vn -0.350696 0.936489 0.000000
vn 0.000000 1.000000 0.000000
vn 0.000000 0.000000 -1.000000
vn -0.000000 0.000000 -1.000000
vn -0.000000 0.000000 -1.000000
vn 0.000000 0.000000 -1.000000
vn 0.000000 -1.000000 0.000000
vn 0.000000 -1.000000 0.000000
vn 0.000000 -1.000000 0.000000
vn 0.000000 -1.000000 0.000000
vn 0.543176 0.839619 0.000000
vn 0.543176 0.839619 0.000000
vn 0.543176 0.839619 0.000000
vn 0.543176 0.839619 0.000000
vn -1.000000 0.000000 0.000000
vn -1.000000 0.000000 0.000000
vn -1.000000 0.000000 0.000000
vn -1.000000 0.000000 0.000000
vn 0.000000 -1.000000 0.000000
vn 0.000000 -1.000000 0.000000
vn 0.000000 -1.000000 0.000000
vn 0.000000 -1.000000 0.000000
vn -0.000000 0.000000 -1.000000
vn -0.000000 0.000000 -1.000000
vn -0.000000 0.000000 -1.000000
vn -0.000000 0.000000 -1.000000
vn -0.350696 0.936489 0.000000
vn -0.350696 0.936489 0.000000
vn -0.999964 0.008509 0.000000
vn -0.999964 0.008509 0.000000
vn 0.000000 0.000000 1.000000
vn 0.000000 0.000000 1.000000
vn 0.000000 0.000000 1.000000
vn 0.000000 0.000000 1.000000
vn 0.000000 0.000000 -1.000000
vn -0.000000 0.000000 -1.000000
vn -0.000000 0.000000 -1.000000
vn 0.000000 0.000000 -1.000000
vn 0.000000 -1.000000 0.000000
vn -0.350696 -0.936489 0.000000
vn -0.350696 -0.936489 0.000000
vn 0.000000 -1.000000 0.000000
vn 0.000000 0.000000 1.000000
vn 0.000000 0.000000 1.000000
vn 0.000000 0.000000 1.000000
vn 0.000000 0.000000 1.000000
vn 0.000000 1.000000 0.000000
vn 0.000000 1.000000 0.000000
vn 0.000000 1.000000 0.000000
vn 0.000000 1.000000 0.000000
vn 0.543176 -0.839619 0.000000
vn 0.543176 -0.839619 0.000000
vn 0.543176 -0.839619 0.000000
vn 0.543176 -0.839619 0.000000
vn -1.000000 0.000000 0.000000
vn -1.000000 0.000000 0.000000
vn -1.000000 0.000000 0.000000
vn -1.000000 0.000000 0.000000
vn 0.000000 1.000000 0.000000
vn 0.000000 1.000000 0.000000
vn 0.000000 1.000000 0.000000
vn 0.000000 1.000000 0.000000
vn 0.000000 0.000000 1.000000
vn 0.000000 0.000000 1.000000
vn 0.000000 0.000000 1.000000
vn 0.000000 0.000000 1.000000
vn -0.350696 -0.936489 0.000000
vn -0.350696 -0.936489 0.000000
vn -0.999964 -0.008509 0.000000
vn -0.999964 -0.008509 0.000000
vn -0.000000 0.000000 -1.000000
vn -0.000000 0.000000 -1.000000
vn -0.000000 0.000000 -1.000000
vn -0.000000 0.000000 -1.000000
vn 0.000000 0.000000 1.000000
vn 0.000000 0.000000 1.000000
vn 0.000000 0.000000 1.000000
vn 0.000000 0.000000 1.000000
vn 0.000000 1.000000 0.000000
vn -0.350696 0.936489 0.000000
vn -0.350696 0.936489 0.000000
vn 0.000000 1.000000 0.000000
vn 0.000000 0.000000 -1.000000
vn -0.000000 0.000000 -1.000000
vn -0.000000 0.000000 -1.000000
vn 0.000000 0.000000 -1.000000
vn 0.000000 -1.000000 0.000000
vn 0.000000 -1.000000 0.000000
vn 0.000000 -1.000000 0.000000
vn 0.000000 -1.000000 0.000000
vn 0.543176 0.839619 0.000000
vn 0.543176 0.839619 0.000000
vn 0.543176 0.839619 0.000000
vn 0.543176 0.839619 0.000000
vn -1.000000 0.000000 0.000000
vn -1.000000 0.000000 0.000000
vn -1.000000 0.000000 0.000000
vn -1.000000 0.000000 0.000000
vn 0.000000 -1.000000 0.000000
vn 0.000000 -1.000000 0.000000
vn 0.000000 -1.000000 0.000000
vn 0.000000 -1.000000 0.000000
vn -0.000000 0.000000 -1.000000
vn -0.000000 0.000000 -1.000000
vn -0.000000 0.000000 -1.000000
vn -0.000000 0.000000 -1.000000
vn -0.350696 0.936489 0.000000
vn -0.350696 0.936489 0.000000
vn -0.999964 0.008509 0.000000
vn -0.999964 0.008509 0.000000
vn 0.000000 0.000000 1.000000
vn 0.000000 0.000000 1.000000
vn 0.000000 0.000000 1.000000
vn 0.000000 0.000000 1.000000
s off
g Arrow:group3_pasted__group1_pasted__pasted__pCube1
usemtl lambert2SG
f 1/1/1 2/2/2 4/3/3 3/4/4
f 3/4/5 4/3/6 6/5/7 5/6/8
f 5/6/9 6/5/10 8/7/11 7/8/12
f 7/8/13 8/7/14 2/9/15 1/10/16
f 10/11/17 9/12/18 11/13/19 12/14/20
f 7/15/21 1/1/22 3/4/23 5/16/24
f 2/2/25 8/17/26 9/12/27 10/11/28
f 8/17/29 6/18/30 11/13/31 9/12/32
f 6/18/33 4/3/34 12/14/35 11/13/36
f 4/3/37 2/2/38 10/11/39 12/14/40
f 13/19/41 14/20/42 16/21/43 15/22/44
f 15/22/45 16/21/46 18/23/47 17/24/48
f 17/24/49 18/23/50 20/25/51 19/26/52
f 19/26/53 20/25/54 14/27/55 13/28/56
f 22/29/57 21/30/58 23/31/59 24/32/60
f 19/33/61 13/19/62 15/22/63 17/34/64
f 14/20/65 20/35/66 21/30/67 22/29/68
f 20/35/69 18/36/70 23/31/71 21/30/72
f 18/36/73 16/21/74 24/32/75 23/31/76
f 16/21/77 14/20/78 22/29/79 24/32/80
f 25/37/81 26/38/82 28/39/83 27/40/84
f 27/40/85 28/39/86 30/41/87 29/42/88
f 29/42/89 30/41/90 32/43/91 31/44/92
f 31/44/93 32/43/94 26/45/95 25/46/96
f 34/47/97 33/48/98 35/49/99 36/50/100
f 31/51/101 25/37/102 27/40/103 29/52/104
f 26/38/105 32/53/106 33/48/107 34/47/108
f 32/53/109 30/54/110 35/49/111 33/48/112
f 30/54/113 28/39/114 36/50/115 35/49/116
f 28/39/117 26/38/118 34/47/119 36/50/120
f 37/55/121 38/56/122 40/57/123 39/58/124
f 39/58/125 40/57/126 42/59/127 41/60/128
f 41/60/129 42/59/130 44/61/131 43/62/132
f 43/62/133 44/61/134 38/63/135 37/64/136
f 46/65/137 45/66/138 47/67/139 48/68/140
f 43/69/141 37/55/142 39/58/143 41/70/144
f 38/56/145 44/71/146 45/66/147 46/65/148
f 44/71/149 42/72/150 47/67/151 45/66/152
f 42/72/153 40/57/154 48/68/155 47/67/156
f 40/57/157 38/56/158 46/65/159 48/68/160
f 49/73/161 50/74/162 52/75/163 51/76/164
f 51/76/165 52/75/166 54/77/167 53/78/168
f 53/78/169 54/77/170 56/79/171 55/80/172
f 55/80/173 56/79/174 50/81/175 49/82/176
f 58/83/177 57/84/178 59/85/179 60/86/180
f 55/87/181 49/73/182 51/76/183 53/88/184
f 50/74/185 56/89/186 57/84/187 58/83/188
f 56/89/189 54/90/190 59/85/191 57/84/192
f 54/90/193 52/75/194 60/86/195 59/85/196
f 52/75/197 50/74/198 58/83/199 60/86/200
f 61/91/201 62/92/202 64/93/203 63/94/204
f 63/94/205 64/93/206 66/95/207 65/96/208
f 65/96/209 66/95/210 68/97/211 67/98/212
f 67/98/213 68/97/214 62/99/215 61/100/216
f 70/101/217 69/102/218 71/103/219 72/104/220
f 67/105/221 61/91/222 63/94/223 65/106/224
f 62/92/225 68/107/226 69/102/227 70/101/228
f 68/107/229 66/108/230 71/103/231 69/102/232
f 66/108/233 64/93/234 72/104/235 71/103/236
f 64/93/237 62/92/238 70/101/239 72/104/240
